<svg xmlns="http://www.w3.org/2000/svg" viewBox="0 0 579.94 203.76"><defs><style>.cls-1{fill:#f04438;}.cls-2{fill:#231f20;}</style></defs><g id="Layer_2" data-name="Layer 2"><g id="Layer_1-2" data-name="Layer 1"><path class="cls-1" d="M106.23,169.23,82.37,155.46a21.65,21.65,0,0,1-4-3v28.68a7,7,0,0,0,7,7h.55a11.26,11.26,0,0,1,16.3,0h.56a7,7,0,0,0,7-7v-9.88h0Z"/><path class="cls-1" d="M0,0H0V141.07a62.7,62.7,0,0,0,62.7,62.69h0V62.7A62.7,62.7,0,0,0,0,0ZM54.86,62.7V78.37A15.68,15.68,0,0,1,39.18,62.7,15.67,15.67,0,0,0,23.51,47,15.67,15.67,0,0,1,7.84,31.35V15.67a46.81,46.81,0,0,1,31.34,12,46.88,46.88,0,0,1,15.68,35Z"/><path class="cls-2" d="M203.76,78.37v40c-.08-.08-6.93-4.23-6.93-4.23V91.33l-18,12-1.55-.9L174,100.53h0l-1.84-1.06Z"/><path class="cls-1" d="M198.83,125.39a14.91,14.91,0,0,0-2.55-1.89l-1.24-.72-1.22-.7-3.31-1.91-18.1-10.45L166.68,113l-25.61,14.79L115.45,113l-5.73-3.31-18.1,10.45-3.31,1.91-1.22.7-1.24.72a14.45,14.45,0,0,0-2.54,1.89,14.94,14.94,0,0,0-4.94,11.07h0a15,15,0,0,0,7.48,13l20.38,11.77,3.49-2,2.61-1.51,2.61-1.51,26.13-15.08,26.12,15.08,2.61,1.51,2.61,1.51,3.49,2,20.38-11.77a15,15,0,0,0,7.48-13h0A15,15,0,0,0,198.83,125.39Z"/><polygon class="cls-2" points="120.17 161.19 141.07 173.26 161.96 161.19 141.07 149.12 120.17 161.19"/><path class="cls-1" d="M82.29,195.92a3.92,3.92,0,0,0-3.92,3.92v3.92h4.35V196A3,3,0,0,0,82.29,195.92Z"/><path class="cls-1" d="M109.72,203.76v-3.92a3.93,3.93,0,0,0-3.92-3.92,3.29,3.29,0,0,0-.44.05v7.79Z"/><path class="cls-1" d="M101.87,195.79a8.19,8.19,0,0,0-.32-2,4.58,4.58,0,0,0-.15-.49,7.78,7.78,0,0,0-13.16-2.61,7.67,7.67,0,0,0-1.55,2.61,4.58,4.58,0,0,0-.15.49,7.74,7.74,0,0,0-.32,2s0,.09,0,.13v7.84h15.67v-7.84S101.87,195.83,101.87,195.79Z"/><path class="cls-1" d="M176.33,195.92a3.93,3.93,0,0,0-3.92,3.92v3.92h4.36V196A3.29,3.29,0,0,0,176.33,195.92Z"/><path class="cls-1" d="M203.76,203.76v-3.92a3.92,3.92,0,0,0-3.92-3.92,3,3,0,0,0-.43.05v7.79Z"/><path class="cls-1" d="M195.91,195.79a7.73,7.73,0,0,0-.31-2l-.15-.49a7.79,7.79,0,0,0-13.17-2.61,8,8,0,0,0-1.55,2.61c-.06.16-.1.33-.15.49a8.19,8.19,0,0,0-.32,2s0,.09,0,.13v7.84h15.67v-7.84S195.91,195.83,195.91,195.79Z"/><path class="cls-2" d="M78.31,78.55v40c.09-.08,6.94-4.23,6.94-4.23V91.51l18,12,1.55-.9,3.31-1.91h0L110,99.65Z"/><path class="cls-1" d="M276.18,119.88a10.29,10.29,0,0,1,7.59,3.17,10.48,10.48,0,0,1,3.14,7.66H245.84a10.3,10.3,0,0,1-7.59-3.18,10.49,10.49,0,0,1-3.14-7.65V78.41a10.29,10.29,0,0,1,7.59,3.17,10.56,10.56,0,0,1,3.14,7.7v30.6Z"/><path class="cls-1" d="M304.18,78.37h30.38a10.36,10.36,0,0,1,7.62,3.17,10.56,10.56,0,0,1,3.14,7.7v10.83a10.52,10.52,0,0,1-3.14,7.69,10.33,10.33,0,0,1-7.62,3.18H306.49a10.58,10.58,0,0,1,3.14-7.68,10.3,10.3,0,0,1,7.62-3.19h17.31V89.24H304.18v30.6a10.5,10.5,0,0,1-3.15,7.69,10.26,10.26,0,0,1-7.58,3.18V89.24a10.56,10.56,0,0,1,3.14-7.7A10.33,10.33,0,0,1,304.18,78.37Z"/><path class="cls-2" d="M382.42,119.88a10.49,10.49,0,0,1-3.14,7.65,10.3,10.3,0,0,1-7.59,3.18V89.24H347.78a10.48,10.48,0,0,1,3.14-7.66,10.31,10.31,0,0,1,7.62-3.17h13.15a10.29,10.29,0,0,1,7.59,3.17,10.52,10.52,0,0,1,3.14,7.66Zm13.36-30.64a10.26,10.26,0,0,0,7.59-3.18,10.48,10.48,0,0,0,3.14-7.65H384.73V89.24Z"/><path class="cls-2" d="M423.35,89.28v30.6a10.46,10.46,0,0,1-3.15,7.65,10.26,10.26,0,0,1-7.58,3.18V89.28a10.56,10.56,0,0,1,3.14-7.7,10.27,10.27,0,0,1,7.59-3.17h41.07a10.54,10.54,0,0,1-3.14,7.67,10.31,10.31,0,0,1-7.62,3.2Zm2.31,21.66h10.65a10.26,10.26,0,0,0,7.59-3.18,10.44,10.44,0,0,0,3.14-7.65H425.66Zm28,8.94a10.32,10.32,0,0,1,7.62,3.17,10.48,10.48,0,0,1,3.14,7.66H425.66V119.88Z"/><path class="cls-2" d="M481.11,130.71a10.28,10.28,0,0,1-7.59-3.18,10.49,10.49,0,0,1-3.14-7.65V89.24a10.52,10.52,0,0,1,3.14-7.66,10.27,10.27,0,0,1,7.59-3.17h19.57a10.26,10.26,0,0,1,7.59,3.17,10.49,10.49,0,0,1,3.15,7.66H481.11v30.64h41.07a10.49,10.49,0,0,1-3.14,7.65,10.33,10.33,0,0,1-7.62,3.18Z"/><path class="cls-2" d="M538.87,78.41a10.27,10.27,0,0,0-7.59,3.17,10.52,10.52,0,0,0-3.14,7.66v41.47a10.26,10.26,0,0,0,7.58-3.18,10.46,10.46,0,0,0,3.15-7.65v-8.94h28V100.11h-28Z"/><path class="cls-2" d="M579.94,89.28a10.56,10.56,0,0,0-3.14-7.68,10.3,10.3,0,0,0-7.62-3.19V96.08h10.76Z"/><path class="cls-2" d="M569.18,94.8v25a10.48,10.48,0,0,0,3.16,7.67,10.3,10.3,0,0,0,7.6,3.2V95.86Z"/><path class="cls-1" d="M239.05,153.74h4.54l-.46,2.61h-7.95l2.48-14.08h3.4Z"/><path class="cls-2" d="M255.39,146.26a4.08,4.08,0,0,1,1.25,3.12,8.55,8.55,0,0,1-.1,1.11,4.64,4.64,0,0,1-.26.92h-7.71c0,.27,0,.45,0,.54,0,1.21.58,1.81,1.73,1.81a2.32,2.32,0,0,0,1.32-.38,2.25,2.25,0,0,0,.84-1H256a6,6,0,0,1-2.28,2.94,6.43,6.43,0,0,1-3.79,1.14,4.79,4.79,0,0,1-3.42-1.19,4.32,4.32,0,0,1-1.27-3.31,8.26,8.26,0,0,1,.12-1.36,6.76,6.76,0,0,1,1.24-2.94,6.19,6.19,0,0,1,2.32-1.93,6.92,6.92,0,0,1,3-.66A4.84,4.84,0,0,1,255.39,146.26Zm-2.16,3.12a1.46,1.46,0,0,0-.5-1.2,2,2,0,0,0-1.25-.39,2.63,2.63,0,0,0-1.66.55,3,3,0,0,0-1,1.64h4.34A3.57,3.57,0,0,0,253.23,149.38Z"/><path class="cls-2" d="M265.61,145.69a2.57,2.57,0,0,1,1.11,1.56l.36-2h3.4l-2,11.11H265.1l.38-2a4.36,4.36,0,0,1-1.62,1.57,4.62,4.62,0,0,1-2.32.58,3.69,3.69,0,0,1-2.87-1.16,4.68,4.68,0,0,1-1.06-3.24,9.34,9.34,0,0,1,.14-1.6,7.41,7.41,0,0,1,1.13-2.87,5.71,5.71,0,0,1,2-1.88,5.19,5.19,0,0,1,2.52-.64A3.78,3.78,0,0,1,265.61,145.69Zm-3.37,3.11a3.37,3.37,0,0,0-1,2,4,4,0,0,0-.06.66,1.88,1.88,0,0,0,2,2.05,2.76,2.76,0,0,0,1.9-.73,3.42,3.42,0,0,0,1-2,3.61,3.61,0,0,0,.06-.63,2.07,2.07,0,0,0-.55-1.53,2,2,0,0,0-1.46-.54A2.78,2.78,0,0,0,262.24,148.8Z"/><path class="cls-2" d="M284.57,141.61,282,156.35h-3.4l.35-2a4.26,4.26,0,0,1-1.61,1.57,4.53,4.53,0,0,1-2.31.58,3.68,3.68,0,0,1-2.85-1.19,4.79,4.79,0,0,1-1.07-3.29,7.82,7.82,0,0,1,.14-1.52,7.4,7.4,0,0,1,1.12-2.87,5.73,5.73,0,0,1,2-1.88,5.15,5.15,0,0,1,2.51-.64,3.87,3.87,0,0,1,2.19.57,2.54,2.54,0,0,1,1.1,1.58l1-5.64Zm-8.88,7.19a3.33,3.33,0,0,0-1,2,4,4,0,0,0-.05.66,1.87,1.87,0,0,0,2,2.05,2.74,2.74,0,0,0,1.89-.73,3.37,3.37,0,0,0,1-2,2.85,2.85,0,0,0,.06-.63,2.1,2.1,0,0,0-.54-1.53,2,2,0,0,0-1.47-.54A2.75,2.75,0,0,0,275.69,148.8Z"/><path class="cls-2" d="M289.66,145.24l-2,11.11h-3.4l1.95-11.11Zm-2.53-4.32a2.47,2.47,0,0,1,1.7-.6,1.85,1.85,0,0,1,1.26.4,1.37,1.37,0,0,1,.47,1.07,1.89,1.89,0,0,1-.67,1.48,2.38,2.38,0,0,1-1.68.61,1.93,1.93,0,0,1-1.29-.4,1.35,1.35,0,0,1-.46-1A2,2,0,0,1,287.13,140.92Z"/><path class="cls-2" d="M301.6,146a3.57,3.57,0,0,1,.91,2.62,6.92,6.92,0,0,1-.12,1.24l-1.16,6.45h-3.38l1.06-6a4.82,4.82,0,0,0,0-.62,1.71,1.71,0,0,0-.47-1.29,1.85,1.85,0,0,0-1.34-.46,2.48,2.48,0,0,0-1.74.65,3.07,3.07,0,0,0-.93,1.88l-1,5.89H290l2-11.11h3.43l-.36,2a4.74,4.74,0,0,1,1.7-1.54,4.67,4.67,0,0,1,2.32-.57A3.37,3.37,0,0,1,301.6,146Z"/><path class="cls-2" d="M304.9,155.3a4.74,4.74,0,0,1-1.08-3.29,8.68,8.68,0,0,1,.14-1.52,7.41,7.41,0,0,1,1.13-2.87,5.71,5.71,0,0,1,2-1.88,5.19,5.19,0,0,1,2.52-.64,3.9,3.9,0,0,1,2.21.57,2.58,2.58,0,0,1,1.1,1.58l.36-2h3.38l-1.95,11a7.34,7.34,0,0,1-1.06,2.8,5.94,5.94,0,0,1-2.15,2,6.33,6.33,0,0,1-3.11.74,5.59,5.59,0,0,1-3.8-1.18,4.25,4.25,0,0,1-1.39-3.22h3.36a1.41,1.41,0,0,0,.56,1.05,2.3,2.3,0,0,0,1.41.38,2.75,2.75,0,0,0,1.81-.61,3.07,3.07,0,0,0,1-1.94l.36-1.95a4.36,4.36,0,0,1-1.62,1.57,4.59,4.59,0,0,1-2.32.58A3.68,3.68,0,0,1,304.9,155.3Zm3.55-6.5a3.32,3.32,0,0,0-1,2,4.18,4.18,0,0,0-.06.68,2,2,0,0,0,.55,1.49,2,2,0,0,0,1.46.54,2.72,2.72,0,0,0,1.89-.73,3.38,3.38,0,0,0,1-2,3.61,3.61,0,0,0,.06-.63,2.07,2.07,0,0,0-.56-1.53,2,2,0,0,0-1.47-.54A2.71,2.71,0,0,0,308.45,148.8Z"/><path class="cls-1" d="M325,151.41l-.88,4.94h-3.41l2.48-14.08h5.51a5,5,0,0,1,3.32,1,3.28,3.28,0,0,1,1.13,2.65,6,6,0,0,1-.11,1,5.29,5.29,0,0,1-1,2.34,5.41,5.41,0,0,1-2,1.61,6.69,6.69,0,0,1-2.91.59Zm4.58-4.54a3.51,3.51,0,0,0,0-.46c0-.93-.59-1.39-1.77-1.39h-1.74l-.63,3.66h1.73A2.11,2.11,0,0,0,329.58,146.87Z"/><path class="cls-2" d="M340.23,145.72a4.68,4.68,0,0,1,2.28-.6l-.64,3.64h-1a3.89,3.89,0,0,0-2.2.58,2.74,2.74,0,0,0-1.06,1.95l-.9,5.06h-3.42l1.95-11.11h3.42l-.36,2.09A6.18,6.18,0,0,1,340.23,145.72Z"/><path class="cls-2" d="M351.66,145.65a4.17,4.17,0,0,1,1.75,1.63,4.86,4.86,0,0,1,.63,2.52,7.64,7.64,0,0,1-.12,1.29,6.35,6.35,0,0,1-1.26,2.87,6.26,6.26,0,0,1-2.36,1.87,7,7,0,0,1-3,.66,5.79,5.79,0,0,1-2.63-.57,4.21,4.21,0,0,1-1.77-1.62,4.82,4.82,0,0,1-.62-2.51,7.49,7.49,0,0,1,.12-1.3,6.39,6.39,0,0,1,1.25-2.87,6.25,6.25,0,0,1,2.38-1.88,7.27,7.27,0,0,1,3-.64A5.81,5.81,0,0,1,351.66,145.65Zm-4.78,3.09a3.43,3.43,0,0,0-1,2,6.27,6.27,0,0,0-.08.74,2,2,0,0,0,.53,1.49,1.92,1.92,0,0,0,1.36.5,2.58,2.58,0,0,0,1.77-.7,3.42,3.42,0,0,0,1-2,4.91,4.91,0,0,0,.06-.74,2,2,0,0,0-.53-1.49,1.86,1.86,0,0,0-1.34-.52A2.6,2.6,0,0,0,346.88,148.74Z"/><path class="cls-2" d="M362,143.72a2,2,0,0,0-1.28.36,2,2,0,0,0-.61,1.16h2l-.5,2.87h-2l-1.46,8.24h-3.41l1.46-8.24h-1.33l.49-2.87h1.34l0-.12a5,5,0,0,1,1.77-3.2,5.78,5.78,0,0,1,3.71-1.13l.71,0-.52,2.93Z"/><path class="cls-2" d="M372.47,146.26a4.08,4.08,0,0,1,1.25,3.12,8.55,8.55,0,0,1-.1,1.11,4,4,0,0,1-.26.92h-7.71c0,.27,0,.45,0,.54,0,1.21.58,1.81,1.73,1.81a2.3,2.3,0,0,0,1.32-.38,2.18,2.18,0,0,0,.84-1h3.6a6,6,0,0,1-2.28,2.94,6.43,6.43,0,0,1-3.79,1.14,4.79,4.79,0,0,1-3.42-1.19,4.35,4.35,0,0,1-1.27-3.31,7.34,7.34,0,0,1,.13-1.36,6.63,6.63,0,0,1,1.23-2.94,6.27,6.27,0,0,1,2.32-1.93,6.92,6.92,0,0,1,3-.66A4.84,4.84,0,0,1,372.47,146.26Zm-2.16,3.12a1.43,1.43,0,0,0-.5-1.2,2,2,0,0,0-1.25-.39,2.63,2.63,0,0,0-1.66.55,3,3,0,0,0-1,1.64h4.34A3.57,3.57,0,0,0,370.31,149.38Z"/><path class="cls-2" d="M383.44,146.14a3.92,3.92,0,0,1,1.37,2.8h-3.34a1.38,1.38,0,0,0-.52-1.08,2.19,2.19,0,0,0-1.35-.37,1.91,1.91,0,0,0-1,.24.75.75,0,0,0-.39.69.79.79,0,0,0,.54.72,9.87,9.87,0,0,0,1.63.54,18,18,0,0,1,2,.65,3.46,3.46,0,0,1,1.32.93,2.4,2.4,0,0,1,.55,1.65,3.54,3.54,0,0,1-.07.75,3.05,3.05,0,0,1-1.45,2,5.78,5.78,0,0,1-3.23.79,6,6,0,0,1-3.62-1,3.53,3.53,0,0,1-1.44-2.84h3.34a1.14,1.14,0,0,0,.5,1.09,2.64,2.64,0,0,0,1.5.38,1.6,1.6,0,0,0,1-.27.86.86,0,0,0,.34-.71.79.79,0,0,0-.52-.74,10,10,0,0,0-1.67-.57,14.5,14.5,0,0,1-1.91-.61,3.64,3.64,0,0,1-1.31-.91,2.34,2.34,0,0,1-.55-1.61,4.92,4.92,0,0,1,.09-.73,3,3,0,0,1,1.41-2.07,5.85,5.85,0,0,1,3.25-.8A5.34,5.34,0,0,1,383.44,146.14Z"/><path class="cls-2" d="M394.38,146.14a3.92,3.92,0,0,1,1.37,2.8H392.4a1.34,1.34,0,0,0-.51-1.08,2.24,2.24,0,0,0-1.36-.37,1.87,1.87,0,0,0-1,.24.75.75,0,0,0-.39.69.79.79,0,0,0,.53.72,10.39,10.39,0,0,0,1.64.54,17.05,17.05,0,0,1,2,.65,3.49,3.49,0,0,1,1.33.93,2.4,2.4,0,0,1,.55,1.65,3,3,0,0,1-.08.75,3.07,3.07,0,0,1-1.44,2,5.8,5.8,0,0,1-3.24.79,6,6,0,0,1-3.61-1,3.54,3.54,0,0,1-1.45-2.84h3.35a1.12,1.12,0,0,0,.5,1.09,2.63,2.63,0,0,0,1.49.38,1.63,1.63,0,0,0,1-.27.89.89,0,0,0,.34-.71.8.8,0,0,0-.52-.74,10.31,10.31,0,0,0-1.67-.57,14.7,14.7,0,0,1-1.92-.61,3.6,3.6,0,0,1-1.3-.91,2.3,2.3,0,0,1-.55-1.61,6.17,6.17,0,0,1,.08-.73,3,3,0,0,1,1.41-2.07,5.9,5.9,0,0,1,3.25-.8A5.35,5.35,0,0,1,394.38,146.14Z"/><path class="cls-2" d="M401.78,145.24l-2,11.11h-3.4l2-11.11Zm-2.54-4.32a2.49,2.49,0,0,1,1.7-.6,1.85,1.85,0,0,1,1.26.4,1.37,1.37,0,0,1,.47,1.07,1.92,1.92,0,0,1-.66,1.48,2.41,2.41,0,0,1-1.69.61,1.89,1.89,0,0,1-1.28-.4,1.33,1.33,0,0,1-.47-1A2,2,0,0,1,399.24,140.92Z"/><path class="cls-2" d="M411.84,145.65a4.17,4.17,0,0,1,1.75,1.63,4.86,4.86,0,0,1,.63,2.52,7.64,7.64,0,0,1-.12,1.29,6.34,6.34,0,0,1-1.25,2.87,6.41,6.41,0,0,1-2.36,1.87,7,7,0,0,1-3,.66,5.79,5.79,0,0,1-2.63-.57,4.18,4.18,0,0,1-1.76-1.62,4.82,4.82,0,0,1-.63-2.51,7.49,7.49,0,0,1,.12-1.3,6.5,6.5,0,0,1,1.25-2.87,6.21,6.21,0,0,1,2.39-1.88,7.23,7.23,0,0,1,3-.64A5.78,5.78,0,0,1,411.84,145.65Zm-4.78,3.09a3.42,3.42,0,0,0-1,2,4.64,4.64,0,0,0-.08.74,2,2,0,0,0,.52,1.49,1.94,1.94,0,0,0,1.37.5,2.56,2.56,0,0,0,1.76-.7,3.38,3.38,0,0,0,1-2,4.91,4.91,0,0,0,.06-.74,2,2,0,0,0-.53-1.49,1.86,1.86,0,0,0-1.35-.52A2.6,2.6,0,0,0,407.06,148.74Z"/><path class="cls-2" d="M426.46,146a3.57,3.57,0,0,1,.91,2.62,6.92,6.92,0,0,1-.12,1.24l-1.15,6.45h-3.39l1.06-6a4.82,4.82,0,0,0,.05-.62,1.71,1.71,0,0,0-.47-1.29,1.85,1.85,0,0,0-1.34-.46,2.48,2.48,0,0,0-1.74.65,3.12,3.12,0,0,0-.93,1.88l-1,5.89h-3.43l1.95-11.11h3.43l-.36,2a4.74,4.74,0,0,1,1.7-1.54,4.67,4.67,0,0,1,2.32-.57A3.37,3.37,0,0,1,426.46,146Z"/><path class="cls-2" d="M436.66,145.69a2.57,2.57,0,0,1,1.11,1.56l.36-2h3.4l-2,11.11h-3.41l.38-2a4.29,4.29,0,0,1-1.62,1.57,4.59,4.59,0,0,1-2.32.58,3.69,3.69,0,0,1-2.87-1.16,4.68,4.68,0,0,1-1.06-3.24,9.34,9.34,0,0,1,.14-1.6,7.41,7.41,0,0,1,1.13-2.87,5.71,5.71,0,0,1,2-1.88,5.19,5.19,0,0,1,2.52-.64A3.78,3.78,0,0,1,436.66,145.69Zm-3.37,3.11a3.37,3.37,0,0,0-1,2,4,4,0,0,0-.06.66,1.88,1.88,0,0,0,2,2.05,2.76,2.76,0,0,0,1.9-.73,3.42,3.42,0,0,0,1-2,3.61,3.61,0,0,0,.06-.63,2.07,2.07,0,0,0-.55-1.53,2,2,0,0,0-1.46-.54A2.8,2.8,0,0,0,433.29,148.8Z"/><path class="cls-2" d="M447.93,141.61l-2.59,14.74h-3.43l2.59-14.74Z"/><path class="cls-2" d="M470.7,142.27l-.48,2.71H466.4l-2,11.37H461L463,145h-3.78l.47-2.71Z"/><path class="cls-2" d="M480.35,146.26a4.08,4.08,0,0,1,1.25,3.12,8.55,8.55,0,0,1-.1,1.11,4.64,4.64,0,0,1-.26.92h-7.71c0,.27,0,.45,0,.54,0,1.21.58,1.81,1.73,1.81a2.32,2.32,0,0,0,1.32-.38,2.16,2.16,0,0,0,.83-1H481a6,6,0,0,1-2.28,2.94,6.43,6.43,0,0,1-3.79,1.14,4.79,4.79,0,0,1-3.42-1.19,4.32,4.32,0,0,1-1.27-3.31,8.26,8.26,0,0,1,.12-1.36,6.76,6.76,0,0,1,1.24-2.94,6.19,6.19,0,0,1,2.32-1.93,6.92,6.92,0,0,1,3-.66A4.84,4.84,0,0,1,480.35,146.26Zm-2.16,3.12a1.46,1.46,0,0,0-.5-1.2,2,2,0,0,0-1.25-.39,2.63,2.63,0,0,0-1.66.55,3,3,0,0,0-1,1.64h4.34A3.57,3.57,0,0,0,478.19,149.38Z"/><path class="cls-2" d="M492.66,146.28a4.25,4.25,0,0,1,1.3,3.26h-3.62a1.62,1.62,0,0,0-.46-1.12,1.67,1.67,0,0,0-1.18-.4,2.21,2.21,0,0,0-1.6.71,3.7,3.7,0,0,0-.94,2.06,3.86,3.86,0,0,0-.09.84,2,2,0,0,0,.46,1.44,1.58,1.58,0,0,0,1.22.49,2.17,2.17,0,0,0,1.31-.4,2.39,2.39,0,0,0,.84-1.11h3.6a6.63,6.63,0,0,1-2.4,3.26,6.38,6.38,0,0,1-3.81,1.18,4.74,4.74,0,0,1-3.43-1.23,4.42,4.42,0,0,1-1.29-3.37,9.89,9.89,0,0,1,.14-1.4,6.57,6.57,0,0,1,1.22-2.87,6,6,0,0,1,2.26-1.88,6.86,6.86,0,0,1,3-.64A5,5,0,0,1,492.66,146.28Z"/><path class="cls-2" d="M506.17,146a3.59,3.59,0,0,1,.9,2.6,7,7,0,0,1-.12,1.26l-1.13,6.45h-3.39l1.05-6a3.57,3.57,0,0,0,.06-.6,1.71,1.71,0,0,0-.48-1.31,1.81,1.81,0,0,0-1.33-.46,2.55,2.55,0,0,0-1.62.54,3.08,3.08,0,0,0-1,1.58l-1.09,6.3H494.6l2.59-14.74h3.43l-1,5.62a4.69,4.69,0,0,1,1.71-1.54,4.6,4.6,0,0,1,2.31-.57A3.38,3.38,0,0,1,506.17,146Z"/><path class="cls-2" d="M519.63,146a3.61,3.61,0,0,1,.91,2.62,6.16,6.16,0,0,1-.13,1.24l-1.15,6.45h-3.39l1.06-6a3.59,3.59,0,0,0,.06-.62,1.68,1.68,0,0,0-.48-1.29,1.82,1.82,0,0,0-1.33-.46,2.52,2.52,0,0,0-1.75.65,3.11,3.11,0,0,0-.92,1.88l-1,5.89h-3.42L510,145.24h3.43l-.37,2a4.81,4.81,0,0,1,4-2.11A3.39,3.39,0,0,1,519.63,146Z"/><path class="cls-2" d="M531.22,145.65a4.12,4.12,0,0,1,1.75,1.63,4.86,4.86,0,0,1,.63,2.52,6.73,6.73,0,0,1-.12,1.29,6.23,6.23,0,0,1-1.25,2.87,6.41,6.41,0,0,1-2.36,1.87,7,7,0,0,1-3,.66,5.79,5.79,0,0,1-2.63-.57,4.24,4.24,0,0,1-1.76-1.62,4.82,4.82,0,0,1-.63-2.51,7.49,7.49,0,0,1,.12-1.3,6.5,6.5,0,0,1,1.25-2.87,6.28,6.28,0,0,1,2.39-1.88,7.23,7.23,0,0,1,3-.64A5.78,5.78,0,0,1,531.22,145.65Zm-4.78,3.09a3.42,3.42,0,0,0-1,2,6.27,6.27,0,0,0-.08.74,2,2,0,0,0,.53,1.49,1.9,1.9,0,0,0,1.36.5,2.56,2.56,0,0,0,1.76-.7,3.38,3.38,0,0,0,1-2,4.91,4.91,0,0,0,.06-.74,2,2,0,0,0-.53-1.49,1.86,1.86,0,0,0-1.35-.52A2.64,2.64,0,0,0,526.44,148.74Z"/><path class="cls-2" d="M540.3,141.61l-2.59,14.74h-3.43l2.59-14.74Z"/><path class="cls-2" d="M549.65,145.65a4.17,4.17,0,0,1,1.75,1.63,4.86,4.86,0,0,1,.63,2.52,7.64,7.64,0,0,1-.12,1.29,6.35,6.35,0,0,1-1.26,2.87,6.26,6.26,0,0,1-2.36,1.87,7,7,0,0,1-3,.66,5.79,5.79,0,0,1-2.63-.57,4.21,4.21,0,0,1-1.77-1.62,4.82,4.82,0,0,1-.62-2.51,7.49,7.49,0,0,1,.12-1.3,6.39,6.39,0,0,1,1.25-2.87,6.25,6.25,0,0,1,2.38-1.88,7.27,7.27,0,0,1,3-.64A5.81,5.81,0,0,1,549.65,145.65Zm-4.78,3.09a3.43,3.43,0,0,0-1,2,6.27,6.27,0,0,0-.08.74,2,2,0,0,0,.53,1.49,1.92,1.92,0,0,0,1.36.5,2.58,2.58,0,0,0,1.77-.7,3.42,3.42,0,0,0,1-2,4.91,4.91,0,0,0,.06-.74,2,2,0,0,0-.53-1.49,1.86,1.86,0,0,0-1.34-.52A2.6,2.6,0,0,0,544.87,148.74Z"/><path class="cls-2" d="M554.1,155.3A4.79,4.79,0,0,1,553,152a8.68,8.68,0,0,1,.14-1.52,7.41,7.41,0,0,1,1.13-2.87,5.71,5.71,0,0,1,2-1.88,5.19,5.19,0,0,1,2.52-.64,3.9,3.9,0,0,1,2.21.57,2.54,2.54,0,0,1,1.1,1.58l.36-2h3.38l-2,11a7.34,7.34,0,0,1-1.06,2.8,5.86,5.86,0,0,1-2.15,2,6.32,6.32,0,0,1-3.1.74,5.6,5.6,0,0,1-3.81-1.18,4.29,4.29,0,0,1-1.39-3.22h3.36a1.41,1.41,0,0,0,.56,1.05,2.31,2.31,0,0,0,1.42.38,2.74,2.74,0,0,0,1.8-.61,3.07,3.07,0,0,0,1-1.94l.36-1.95a4.36,4.36,0,0,1-1.62,1.57,4.59,4.59,0,0,1-2.32.58A3.68,3.68,0,0,1,554.1,155.3Zm3.55-6.5a3.32,3.32,0,0,0-1,2,4.18,4.18,0,0,0-.06.68,2,2,0,0,0,.55,1.49,2,2,0,0,0,1.46.54,2.72,2.72,0,0,0,1.89-.73,3.38,3.38,0,0,0,1-2,3.61,3.61,0,0,0,.06-.63,2.07,2.07,0,0,0-.56-1.53,2,2,0,0,0-1.47-.54A2.71,2.71,0,0,0,557.65,148.8Z"/><path class="cls-2" d="M570.45,145.24l1.45,6.81,3.69-6.81h3.78l-9.84,16.41h-3.76l3.64-5.72-2.76-10.69Z"/></g></g></svg>