<?xml version="1.0" standalone="no"?>
<!DOCTYPE svg PUBLIC "-//W3C//DTD SVG 1.1//EN" "http://www.w3.org/Graphics/SVG/1.1/DTD/svg11.dtd">
<svg xmlns="http://www.w3.org/2000/svg">
<metadata>Generated by Fontastic.me</metadata>
<defs>
<font id="lptech-font" horiz-adv-x="512">
<font-face font-family="lptech-font" units-per-em="512" ascent="480" descent="-32"/>
<missing-glyph horiz-adv-x="512" />

<glyph glyph-name="arrow-left" unicode="&#97;" d="M333 499l51-51-188-188 188-187-51-52-237 239z"/>
<glyph glyph-name="arrow-right" unicode="&#98;" d="M179 13l-51 51 188 188-188 187 51 52 237-239z"/>
<glyph glyph-name="arrow-right-circle" unicode="&#99;" d="M464 256c0 115-93 208-208 208-115 0-208-93-208-208 0-115 93-208 208-208 115 0 208 93 208 208z m-213-91c-1 1-2 3-3 5-1 2-1 4-1 6 0 2 0 4 1 6 1 2 2 4 3 5l53 53-134 0c-4 0-8 2-11 5-3 3-5 7-5 11 0 4 2 8 5 11 3 3 7 5 11 5l134 0-53 53c-1 1-2 3-3 5-1 2-1 4-1 6 0 2 0 4 1 6 1 2 2 4 3 5 2 2 4 3 6 4 2 1 4 1 6 1 4 0 8-2 11-5l79-80c3-3 5-7 5-11 0-4-2-8-5-11l-79-80c-1-2-3-3-5-4-2-1-4-1-6-1-2 0-4 0-6 1-2 1-4 2-6 4z"/>
<glyph glyph-name="check" unicode="&#100;" d="M201 133l-111 112c-6 6-6 17 0 24l24 24c7 7 18 7 25 0l74-75 160 161c7 7 18 7 25 0l24-24c6-7 6-18 0-25l-197-197c-6-7-17-7-24 0z"/>
<glyph glyph-name="close" unicode="&#101;" d="M98 98c6-6 14-10 22-10 9 0 17 4 23 10l113 113 113-113c6-6 14-9 23-9 8 0 16 3 22 9 6 6 9 14 9 22 0 9-3 17-9 23l-113 113 113 113c6 6 9 14 9 23 0 8-3 16-9 22-6 6-14 9-22 9-9 0-17-3-23-9l-113-113-113 113c-6 6-14 9-23 9-8 0-16-3-22-9-6-6-9-14-9-22 0-9 3-17 9-23l113-113-113-113c-6-6-10-14-10-23 0-8 4-16 10-22z"/>
<glyph glyph-name="close-button" unicode="&#102;" d="M440 456l-368 0c-9 0-16-7-16-16l0-368c0-9 7-16 16-16l368 0c9 0 16 7 16 16l0 368c0 9-7 16-16 16z m-102-273c2-3 0-7-3-7l-29 0c-3 0-5 2-7 3l-43 52-43-52c-2-1-4-3-7-3l-29 0c-3 0-5 4-3 7l61 73-61 73c-1 1-1 1-1 2 0 1 0 2 0 2 1 1 1 1 2 2 0 0 1 1 2 0l29 0c3 0 5-1 7-2l43-52 43 52c2 1 4 2 7 2l29 0c3 0 5-3 3-6l-61-73z"/>
<glyph glyph-name="contact" unicode="&#103;" d="M0 375c0 35 29 64 64 64l384 0c35 0 64-29 64-64l0-238c0-17-7-33-19-45-12-12-28-19-45-19l-384 0c-17 0-33 7-45 19-12 12-19 28-19 45z m156-109c6 0 13 2 19 4 6 3 11 6 16 11 5 5 8 10 11 16 2 6 3 13 3 19 0 7-1 13-3 19-3 6-6 12-11 16-5 5-10 8-16 11-6 2-13 4-19 4-13 0-26-6-35-15-10-9-15-22-15-35 0-13 5-26 15-35 9-9 22-15 35-15z m-51-24c-9 0-17-4-23-10-6-5-9-13-9-22 0-13 5-27 13-37 8-11 20-19 33-22l2 0c23-6 47-6 69 0l2 0c14 3 25 11 34 22 8 10 13 24 13 37 0 4-1 8-3 12-1 4-4 8-7 10-3 3-6 6-10 7-4 2-8 3-12 3z m206 87c-5 0-10-2-13-5-3-4-5-8-5-13 0-5 2-10 5-13 3-4 8-5 13-5l110 0c4 0 9 1 13 5 3 3 5 8 5 13 0 5-2 9-5 13-4 3-9 5-13 5z m0-110c-5 0-10-2-13-5-3-3-5-8-5-13 0-5 2-9 5-13 3-3 8-5 13-5l110 0c4 0 9 2 13 5 3 4 5 8 5 13 0 5-2 10-5 13-4 3-9 5-13 5z"/>
<glyph glyph-name="discount" unicode="&#104;" d="M497 292l-38 39c-5 2-5 6-5 10l0 62c0 28-23 51-51 51l-62 0c-4 0-8 3-10 5l-39 38c-10 11-23 15-36 15-13 0-26-6-36-15l-39-38c-2-2-6-5-10-5l-62 0c-28 0-51-23-51-51l0-62c0-4-3-8-5-10l-38-39c-9-10-15-23-15-36 0-13 6-26 15-36l38-39c5-2 5-6 5-10l0-60c0-28 23-51 51-51l62 0c4 0 8-2 10-5l39-38c8-8 21-15 36-15 15 0 26 7 36 15l39 38c4 3 8 5 10 5l62 0c28 0 51 23 51 51l0 60c0 4 3 8 5 10l38 39c11 8 15 23 15 36 0 13-4 26-15 36z m-326 49l34 0 0-34-34 0z m170-170l-34 0 0 34 34 0z m-158-13l-23 23 171 171 23-23z"/>
<glyph glyph-name="down" unicode="&#105;" d="M107 341l149-234 149 234z"/>
<glyph glyph-name="email" unicode="&#106;" d="M85 469c-22 0-44-9-60-25-16-16-25-37-25-60l0-9 256-137 256 137 0 9c0 23-9 44-25 60-16 16-38 25-60 25z m427-142l-246-132c-3-2-6-3-10-3-4 0-7 1-10 3l-246 132 0-199c0-23 9-44 25-60 16-16 38-25 60-25l342 0c22 0 44 9 60 25 16 16 25 37 25 60z"/>
<glyph glyph-name="facebook" unicode="&#107;" d="M512 256c0 141-115 256-256 256-141 0-256-115-256-256 0-128 94-234 216-253l0 179-65 0 0 74 65 0 0 56c0 65 38 100 97 100 28 0 57-5 57-5l0-63-32 0c-32 0-42-20-42-40l0-48 71 0-11-74-60 0 0-179c122 19 216 125 216 253z"/>
<glyph glyph-name="girl" unicode="&#108;" d="M73 0c-9 4-12 10-11 20 2 20 6 40 17 57 2 3 4 4 7 3 31-8 63-13 96-16 36-4 74-5 111-3 45 2 90 8 134 19 3 0 4-1 5-3 10-14 14-30 16-46 1-4 1-7 1-11 1-11 0-14-11-20-122 0-243 0-365 0z m261 180c2 1 2 2 3 3 29 29 41 64 38 104-2 25-9 49-18 72-12 31-53 38-75 13-12-16-28-25-47-31-19-6-39-8-59-10-22-3-38-19-40-40-2-26 1-51 13-75 7-13 16-25 27-35 0-1-1-1-1-1-13 0-27 0-41 0-6 0-10 4-13 10-9 22-16 44-21 67-6 31-10 62-9 93 1 77 59 145 135 158 92 17 180-47 193-139 3-22 1-44-1-66-4-37-12-74-27-109-5-12-8-14-21-14-12 0-23 0-36 0z m11 98c1-42-21-77-55-92-54-22-117 14-123 72-1 10-1 19-1 28 0 9 6 14 16 15 11 2 22 3 33 5 18 3 36 8 52 16 15 7 27 16 37 29 7 10 21 8 26-3 8-23 16-47 15-70z m-233-172c10 3 20 6 29 10 9 3 19 5 28 9 18 6 34 15 45 33 28-11 56-11 84 0 13-23 36-31 59-38 12-4 24-8 36-12 2-1 4-2 5-3-95-20-190-20-285-1 0 1 0 1-1 2z"/>
<glyph glyph-name="heart" unicode="&#109;" d="M500 238c5 44-24 101-88 121-31 9-64 8-94-4-2 32-14 62-35 87-44 51-108 54-146 31-53-32-77-90-73-174 4-65 21-140 55-236 1-3 3-6 6-7 2-2 6-3 9-3 101 9 176 24 237 48 78 30 122 76 129 137z"/>
<glyph glyph-name="join" unicode="&#110;" d="M215 474c9 2 20 4 30 2 11-2 20-7 28-13 9-6 15-13 19-24 5-8 7-17 7-27l0-312c0-10-2-19-7-27-4-9-10-18-19-24-8-6-17-11-28-11-10-2-19-2-30 3l-128 38c-12 4-25 13-32 23-6 11-12 22-12 37l0 234c0 13 4 28 12 39 9 10 20 19 32 23z m105-47c0 6 2 10 6 15 5 4 9 6 15 6l64 0c17 0 34-6 45-19 13-11 19-28 19-45l0-21c0-7-2-11-6-15-4-5-9-7-15-7-6 0-11 2-15 7-4 4-6 8-6 15l0 21c0 6-2 11-7 15-4 4-8 6-15 6l-64 0c-6 0-10 2-15 7-4 4-6 8-6 15z m128-256c6 0 11-2 15-7 4-4 6-8 6-15l0-21c0-17-6-34-19-45-11-13-28-19-45-19l-64 0c-6 0-10 2-15 6-4 5-6 9-6 15 0 7 2 11 6 15 5 5 9 7 15 7l64 0c7 0 11 2 15 6 5 4 7 9 7 15l0 21c0 7 2 11 6 15 4 5 9 7 15 7z m-256 106c-6 0-11-2-15-6-4-4-6-9-6-15 0-6 2-11 6-15 4-4 9-6 15-6 6 0 11 2 15 6 4 4 6 9 6 15 0 6-2 11-6 15-4 4-9 6-15 6z m192-85c-6 0-11 2-15 6l-43 43c-2 2-4 4-4 6 0 3-2 5-2 9 0 2 0 6 2 9 0 2 2 4 4 6l43 43c9 8 21 8 30 0 8-9 8-22 0-30l-6-7 55 0c13 0 21-8 21-21 0-13-8-21-21-21l-55 0 6-7c8-8 8-21 0-30-4-4-9-6-15-6z"/>
<glyph glyph-name="location" unicode="&#111;" d="M256 480c-47 0-91-19-124-52-33-33-52-77-52-124 0-38 12-75 35-106 0 0 5-6 6-7l135-159 135 159c1 1 6 7 6 7l0 0c23 31 35 68 35 106 0 47-19 91-52 124-33 33-77 52-124 52z m67-187l-67-69-67 69c-8 8-13 19-13 31 0 12 5 23 13 31 4 4 8 7 14 10 5 2 10 3 16 3 6 0 11-1 17-3 5-3 10-6 14-10l6-6 6 6c4 4 9 7 14 10 6 2 11 3 17 3 6 0 11-1 16-3 6-3 10-6 14-10 8-8 13-19 13-31 0-12-5-23-13-31z"/>
<glyph glyph-name="menu" unicode="&#112;" d="M427 107l-150 0c-12 0-21 8-21 21 0 13 9 21 21 21l150 0c12 0 21-8 21-21 0-13-9-21-21-21z m0 128l-342 0c-12 0-21 8-21 21 0 13 9 21 21 21l342 0c12 0 21-8 21-21 0-13-9-21-21-21z m0 128l-342 0c-12 0-21 8-21 21 0 13 9 21 21 21l342 0c12 0 21-8 21-21 0-13-9-21-21-21z"/>
<glyph glyph-name="message" unicode="&#113;" d="M427 469l-342 0c-23 0-42-19-42-42l0-257c0-23 19-42 42-42l64 0 0-85 136 85 142 0c23 0 42 19 42 42l0 257c0 11-4 22-12 30-8 8-19 12-30 12z m-128-234l-150 0 0 42 150 0z m64 85l-214 0 0 43 214 0z"/>
<glyph glyph-name="news" unicode="&#114;" d="M402 407l0-270c0-2 1-4 3-6 1-2 3-3 6-3 2 0 4 0 6 2 2 1 3 3 3 5l1 2 0 247 22 0c8 0 16-3 22-8 6-6 10-13 10-21l0-3 0-219c0-16-5-30-16-41-10-11-24-18-40-19l-3 0-320 0c-15 0-30 6-41 16-11 11-17 25-18 40l0 4 0 274c0 8 3 16 8 22 5 5 13 9 21 10l3 0 301 0c8 0 16-3 22-9 6-5 10-13 10-21l0-2 0-270z m-224-133l-45 0c-8 0-16-3-22-8-6-6-10-13-10-21l0-3 0-45c0-8 3-16 8-22 5-6 13-10 21-10l3 0 45 0c8 0 16 3 22 8 6 5 9 13 10 21l0 3 0 45c0 8-3 16-8 22-6 6-13 9-21 10z m147-82l-64 0-2 0c-4-1-7-2-9-5-2-2-3-5-3-9 0-3 1-6 3-9 2-2 5-4 9-4l2 0 64 0 1 0c4 0 7 2 9 4 2 3 3 6 3 9 0 4-1 7-3 9-2 3-5 4-9 5z m-192 55l45 0c1 0 2-1 3-1 1-1 1-2 2-3l0-1 0-45c0-1-1-2-1-3-1-1-2-2-3-2l-1 0-45 0c-1 0-2 0-3 1-1 1-2 2-2 3l0 1 0 45c0 1 0 2 1 3 1 1 2 1 3 2l1 0 45 0z m192 27l-64 0-2 0c-4 0-7-2-9-4-2-3-3-6-3-9 0-4 1-7 3-10 2-2 5-4 9-4l2 0 64 0 1 0c4 0 7 2 9 4 2 3 3 6 3 10 0 3-1 6-3 9-2 2-5 4-9 4z m0 83l-211 0-2-1c-3 0-6-2-8-4-2-3-3-6-3-9 0-3 1-7 3-9 2-3 5-4 8-5l2 0 211 0 1 0c4 1 7 2 9 5 2 2 3 6 3 9 0 3-1 6-3 9-2 2-5 4-9 4z"/>
<glyph glyph-name="phone" unicode="&#115;" d="M146 460c25-18 44-42 60-65l9-14 9-13c5-7 7-15 6-22-1-8-5-15-11-21l-42-31c-2-1-3-3-4-6 0-2 0-4 1-7 10-17 26-42 45-62 20-19 46-37 65-47 2-1 5-2 7-1 3 1 5 2 6 4l28 42c5 6 12 11 20 12 8 1 17-1 23-5l15-10c26-18 54-39 76-67 4-5 6-10 6-15 1-6 0-12-2-17-18-41-63-77-110-75l-6 0-5 1-6 0-6 1-6 1c-1 0-3 1-4 1l-7 1c-1 1-2 1-4 1l-7 2-9 3-8 2c-40 14-90 40-141 91-51 51-77 101-91 141l-2 8-3 9-2 7-1 8c-1 2-1 4-2 7l-1 6-1 6 0 6-1 5 0 6c-2 47 34 92 75 110 5 2 11 3 16 3 6-1 11-3 15-6z m174-77l2 0c16-3 30-10 41-22 11-11 18-26 20-41 1-6 0-11-3-16-4-4-8-7-14-8-5-1-11 0-15 3-5 2-8 7-9 12l-1 3c-1 6-3 12-8 16-4 5-9 8-15 10l-3 1c-5 1-10 4-14 8-3 4-4 10-4 15 1 6 4 11 8 14 4 4 9 5 15 5z m0 65c34 0 67-13 91-37 24-24 37-57 37-91 0-5-2-11-6-15-4-4-9-6-14-6-6-1-11 1-15 5-4 3-7 8-8 14l0 2c0 22-8 43-23 58-15 16-35 26-56 27l-6 0c-6 0-11 3-15 7-4 4-6 9-6 15 0 5 2 11 6 15 4 4 9 6 15 6z"/>
<glyph glyph-name="price" unicode="&#116;" d="M448 328l0 123c0 6-1 12-3 17-3 6-6 11-10 15-4 4-9 7-15 10-5 2-11 3-17 3l-123 0c-8 0-15-3-21-9l-246-246c-8-8-13-19-13-31 0-12 5-24 13-32l117-117c8-8 20-13 32-13 12 0 23 5 31 13l246 246c6 5 9 13 9 21z m-96 40c-6 0-13 2-18 5-5 4-9 9-12 15-2 6-3 12-1 18 1 6 4 12 8 17 5 4 11 7 17 8 6 2 12 1 18-1 6-3 11-7 15-12 3-5 5-12 5-18 0-8-3-17-9-23-6-6-15-9-23-9z m144 80c-4 0-8-2-11-5-3-3-5-7-5-11l0-127-261-262c-2-1-3-3-4-5-1-2-1-4-1-6 0-2 0-4 1-6 1-2 2-4 3-6 2-1 4-2 6-3 2-1 4-1 6-1 2 0 4 0 6 1 2 1 4 2 5 4l262 262c3 2 5 6 7 9 1 4 2 8 2 12l0 128c0 4-2 8-5 11-3 3-7 5-11 5z"/>
<glyph glyph-name="rule" unicode="&#117;" d="M448 512l-333 0c0-2 0-4 0-6l0-399 367 0 0 362c0 22-11 37-34 43z m-245-145c0 32 0 62 0 94 0 2 0 6 0 8 2 7 8 11 15 11 6 0 12-6 12-13 0-2 0-4 0-8l131 0c0 2 0 4 0 4 0 8 6 15 14 15 9 0 15-7 15-15 0-21 0-45 0-66l0-32c0-11-6-17-15-17-8 0-14 6-14 17 0 0 0 2 0 2l-50 0 0-6c0-28 0-56 0-84 0-10-10-19-21-15-6 5-8 9-8 15l0 92-52 0c0-2 0-4 0-6-2-9-6-13-15-13-6 0-10 6-12 13z m181-226l-171 0c-6 0-12 4-15 10-2 9 5 20 15 20l7 0c8 40 42 62 74 64 30 2 73-17 84-64l6 0c9 0 15-7 15-15 0-7-6-15-15-15z m-299 371l0-405c-19 0-38 0-55-11l0 371c2 24 11 39 34 45z m397-503c0-5-2-7-6-7-2 0-5 0-7 0-66 0-134 0-200 0-66 0-135 0-201 0-23 0-40 17-38 41 0 17 15 34 34 36 2 0 4 0 6 0l399 0c2 0 5 0 7 0 2-2 4-4 6-6 0-5-2-7-6-9-2 0-2 0-5 0-12-2-21-11-19-23 0-11 9-22 22-22 0 0 2 0 2 0 4-4 6-6 6-10z m-247 420l130 0 0-30-130 0z m111-258l-94 0c2 17 23 34 42 34 24 2 47-13 52-34z"/>
<glyph glyph-name="schedule" unicode="&#118;" d="M341 448c6 0 11-2 15-6 4-4 7-10 7-15l0-22 42 0c11 0 21-4 29-11 8-7 13-17 14-28l0-3 0-256c0-11-4-21-11-29-8-8-18-13-28-14l-4 0-298 0c-11 0-21 4-29 11-8 8-13 18-14 28l0 4 0 256c0 10 4 21 11 29 8 8 18 12 28 13l4 0 42 0 0 22c0 5 3 11 7 15 4 4 9 6 15 6 5 0 11-2 15-6 4-4 6-10 6-15l0-22 128 0 0 22c0 5 2 11 6 15 4 4 10 6 15 6z m-25-136l-90-91-30 31c-4 3-10 6-15 6-6 0-11-3-15-7-4-4-7-9-7-15 0-5 3-11 6-15l45-45c2-2 5-3 7-4 3-1 6-2 9-2 3 0 5 1 8 2 3 1 5 2 7 4l105 106c2 2 4 4 5 7 1 2 2 5 2 8 0 3-1 6-2 8-1 3-2 5-4 7-2 2-5 4-7 5-3 1-6 1-9 1-2 0-5 0-8-1-2-1-5-3-7-5z"/>
<glyph glyph-name="search" unicode="&#119;" d="M208 96c44 0 87 14 123 40l0 0c1-1 2-2 3-3l123-124c6-6 14-9 23-9 8 0 17 3 23 9 6 6 9 14 9 23 0 8-3 17-9 23l-124 123c-1 1-2 2-3 3 26 36 40 79 40 123 0 55-22 108-61 147-39 39-92 61-147 61-55 0-108-22-147-61-39-39-61-92-61-147 0-55 22-108 61-147 39-39 92-61 147-61z m0 273c53 53 186-41 0-161-186 120-53 214 0 161z"/>
<glyph glyph-name="star" unicode="&#120;" d="M241 446c6 13 24 13 30 0l38-92c5-11 15-19 28-19l102-6c15 0 20-20 9-28l-77-62c-10-9-15-21-10-32l23-94c4-13-11-26-23-17l-90 53c-11 7-24 7-32 0l-90-53c-12-6-27 4-23 17l23 94c2 13-2 26-10 32l-75 60c-11 10-6 27 9 30l102 6c13 0 21 8 28 19z m128-369c-6 0-11 2-17 4l-90 53c-4 3-10 3-17 0l-89-53c-11-6-26-6-37 2-10 9-14 22-12 34l23 94c2 7 0 13-6 17l-77 62c-4 7-9 19-4 32 4 13 15 21 27 21l103 7c6 0 10 4 13 11l38 91c4 13 17 19 30 19 13 0 23-8 30-19l38-91c2-7 9-9 13-11l102-7c13 0 24-10 28-21 4-13 0-25-11-34l-76-62c-5-4-7-11-7-17l24-94c4-13-2-25-13-34 2-2-7-4-13-4z m-113 89c9 0 17-2 23-6l90-53-23 94c-5 19 2 38 17 49l76 61-102 9c-17 2-34 13-40 30l-41 89-38-91c-9-15-24-28-43-28l-100-9 74-61c15-13 22-32 17-49l-23-94 90 53c6 4 14 6 23 6z"/>
<glyph glyph-name="support" unicode="&#121;" d="M256 469c-118 0-213-95-213-213l0-88c0-22 19-40 42-40l22 0c5 0 11 2 15 6 4 4 6 10 6 15l0 110c0 6-2 11-6 15-4 4-10 6-15 6l-20 0c12 83 83 147 169 147 86 0 157-64 169-147l-20 0c-5 0-11-2-15-6-4-4-6-9-6-15l0-131c0-24-19-43-43-43l-42 0 0 22-86 0 0-64 128 0c47 0 86 38 86 85 23 0 42 18 42 40l0 88c0 118-95 213-213 213z"/>
<glyph glyph-name="time" unicode="&#122;" d="M256 469c-118 0-213-95-213-213 0-118 95-213 213-213 118 0 213 95 213 213 0 118-95 213-213 213z m70-313l-91 91 0 137 42 0 0-119 79-79z"/>
<glyph glyph-name="twitter" unicode="&#65;" d="M161 48c193 0 299 160 299 299 0 4 0 9 0 13 20 15 38 34 52 55-19-9-39-14-60-17 22 13 38 34 46 58-21-12-43-20-67-25-16 17-37 28-59 32-23 3-47-1-67-11-20-11-37-29-46-50-10-21-12-44-7-67-42 2-82 13-120 32-37 19-70 45-96 78-14-23-18-51-12-77 6-26 22-48 44-63-16 0-33 5-47 13l0-2c0-24 8-47 23-66 16-19 37-32 61-37-16-4-32-4-48-1 7-21 20-39 38-53 17-13 39-20 61-20-38-30-84-45-131-45-8 0-17 0-25 1 48-31 104-47 161-47z"/>
<glyph glyph-name="video" unicode="&#66;" d="M136 448c-19 0-37-8-51-21-13-14-21-32-21-51l0-176c0-19 8-37 21-51 14-13 32-21 51-21l208 0c19 0 37 8 51 21 13 14 21 32 21 51l0 176c0 19-8 37-21 51-14 13-32 21-51 21z m56-224l0 128c0 3 1 6 2 8 2 3 4 5 6 6 3 1 6 2 9 2 3 0 5-1 8-3l96-64c2-1 4-3 5-5 1-3 2-5 2-8 0-3-1-5-2-8-1-2-3-4-5-5l-96-64c-3-2-5-3-8-3-3 0-6 1-9 2-2 1-4 3-6 6-1 2-2 5-2 8z m0-160c-12 0-25 3-36 8-11 6-21 14-28 24l232 0c23 0 46 9 62 26 17 16 26 39 26 62l0 200c19-15 32-38 32-64l0-136c0-32-13-62-35-85-23-22-53-35-85-35z"/>
<glyph glyph-name="zalo" unicode="&#67;" d="M490 416c-10 49-39 78-88 92-12 4-24 4-38 4-73 0-145 0-216 0-14 0-26 0-40-4-49-14-78-45-88-92 0-44 0-87 0-130l0-2c0-46 0-91 2-138 2-16 8-34 17-46 26-37 63-53 107-51 39 2 73 0 94-37 4-6 10-10 16-10 6 0 12 4 18 12 19 33 51 41 86 35 2 0 4 0 8 0 63 0 109 34 124 95 2 43 2 84 2 128l0 2c-2 45-2 92-4 142z m-244-207l8 0c28 0 53 0 81 0 19 0 31-10 31-24 0-14-12-22-29-22-48 0-95 0-142 0-12 0-24 2-30 14-5 12-2 24 6 34 18 21 38 41 55 63 20 23 40 47 60 69 2 2 3 4 3 6 2 2 0 2 0 2l-11 0c-32 0-65 0-97 0-21 15-21 31 0 45l166 0c21-14 23-28 7-47-35-44-72-85-110-128 0-2-2-2-4-4 0 0 0 0 0-2l-2-2c0-2 4-4 8-4z"/>
</font>
</defs>
</svg>
